<svg xmlns="http://www.w3.org/2000/svg" width="256" height="24" viewBox="0 0 256 24" shape-rendering="crispEdges">
  <rect x="0" y="0" width="256" height="24" fill="#f0d020"/>
  <rect x="0" y="0" width="256" height="2" fill="#fff2a8"/>
  <rect x="0" y="22" width="256" height="2" fill="#b68800"/>
  <rect x="0" y="0" width="4" height="24" fill="#c09000"/>
  <rect x="8" y="0" width="4" height="24" fill="#c09000"/>
  <rect x="16" y="0" width="4" height="24" fill="#c09000"/>
  <rect x="24" y="0" width="4" height="24" fill="#c09000"/>
  <rect x="32" y="0" width="4" height="24" fill="#c09000"/>
  <rect x="40" y="0" width="4" height="24" fill="#c09000"/>
  <rect x="48" y="0" width="4" height="24" fill="#c09000"/>
  <rect x="56" y="0" width="4" height="24" fill="#c09000"/>
  <rect x="64" y="0" width="4" height="24" fill="#c09000"/>
  <rect x="72" y="0" width="4" height="24" fill="#c09000"/>
  <rect x="80" y="0" width="4" height="24" fill="#c09000"/>
  <rect x="88" y="0" width="4" height="24" fill="#c09000"/>
  <rect x="96" y="0" width="4" height="24" fill="#c09000"/>
  <rect x="104" y="0" width="4" height="24" fill="#c09000"/>
  <rect x="112" y="0" width="4" height="24" fill="#c09000"/>
  <rect x="120" y="0" width="4" height="24" fill="#c09000"/>
  <rect x="128" y="0" width="4" height="24" fill="#c09000"/>
  <rect x="136" y="0" width="4" height="24" fill="#c09000"/>
  <rect x="144" y="0" width="4" height="24" fill="#c09000"/>
  <rect x="152" y="0" width="4" height="24" fill="#c09000"/>
  <rect x="160" y="0" width="4" height="24" fill="#c09000"/>
  <rect x="168" y="0" width="4" height="24" fill="#c09000"/>
  <rect x="176" y="0" width="4" height="24" fill="#c09000"/>
  <rect x="184" y="0" width="4" height="24" fill="#c09000"/>
  <rect x="192" y="0" width="4" height="24" fill="#c09000"/>
  <rect x="200" y="0" width="4" height="24" fill="#c09000"/>
  <rect x="208" y="0" width="4" height="24" fill="#c09000"/>
  <rect x="216" y="0" width="4" height="24" fill="#c09000"/>
  <rect x="224" y="0" width="4" height="24" fill="#c09000"/>
  <rect x="232" y="0" width="4" height="24" fill="#c09000"/>
  <rect x="240" y="0" width="4" height="24" fill="#c09000"/>
  <rect x="248" y="0" width="4" height="24" fill="#c09000"/>
</svg>
