<svg xmlns="http://www.w3.org/2000/svg" width="64" height="64" viewBox="0 0 64 64" fill="none">
  <rect width="64" height="64" rx="8" fill="none"/>
  <g fill="#F2E0FF">
    <path d="M28 6h8l1.6 6.1c1.8.5 3.5 1.2 5 2.2L47 11l6 6-3.3 4.4c1 1.5 1.7 3.2 2.2 5L58 28v8l-6.1 1.6c-.5 1.8-1.2 3.5-2.2 5L53 47l-6 6-4.4-3.3c-1.5 1-3.2 1.7-5 2.2L36 58h-8l-1.6-6.1c-1.8-.5-3.5-1.2-5-2.2L17 53l-6-6 3.3-4.4c-1-1.5-1.7-3.2-2.2-5L6 36v-8l6.1-1.6c.5-1.8 1.2-3.5 2.2-5L11 17l6-6 4.4 3.3c1.5-1 3.2-1.7 5-2.2L28 6zm4 13c-7.2 0-13 5.8-13 13s5.8 13 13 13 13-5.8 13-13-5.8-13-13-13zm0 6c3.9 0 7 3.1 7 7s-3.1 7-7 7-7-3.1-7-7 3.1-7 7-7z"/>
  </g>
</svg>
